<svg id="Layer_1" data-name="Layer 1" xmlns="http://www.w3.org/2000/svg" viewBox="0 0 566.93 566.93"><title>Artboard 101</title><path d="M134.41,564.4l-.21-88.63-43.47,73H75.33L32.07,477.67V564.4H0V416.69H28.27l55.29,91.79L138,416.69h28.07l.42,147.71Z"/><path d="M221.05,549.41q-17.62-17.51-17.62-50V416.69h34.18v81.45q0,39.67,32.92,39.67,16,0,24.48-9.6t8.44-30.07V416.69h33.76V499.4q0,32.5-17.62,50t-49.27,17.52Q238.67,566.93,221.05,549.41Z"/><path d="M472.6,423.23q14.45,6.54,22.26,18.57t7.81,28.49q0,16.25-7.81,28.38T472.6,517.23q-14.46,6.44-34.08,6.44H408.77V564.4H374.59V416.69h63.94Q458.15,416.69,472.6,423.23ZM460,489.17q8-6.65,8-18.89,0-12.45-8-19.1t-23.42-6.65H408.77v51.28h27.85Q452,495.82,460,489.17Z"/><path d="M532.75,416.69h34.18V564.4H532.75Z"/><path d="M246.89,255.43a4.8,4.8,0,0,0-6.44,0l-70,63.36a72.83,72.83,0,0,1-72.24,15l-.06,0a34.72,34.72,0,0,1-17.42-13,35.39,35.39,0,0,1-6.4-20.23,35,35,0,0,1,3.4-15v0L187.27,54.12a28.89,28.89,0,0,1,11.18-12.52,29.93,29.93,0,0,1,15.5-4.31,28.87,28.87,0,0,1,22.31,10.38h0l12.39,14.61,0,0,12.26,14.49L262,78l23.38,27.64,0,0,9.89,11.66a67.88,67.88,0,0,1,10.5,71,66.17,66.17,0,0,1-5.27,9.75,4.74,4.74,0,0,0,.86,6.09l21,19a3.36,3.36,0,0,0,4.75-.24A72.6,72.6,0,0,0,340,203.05,105.19,105.19,0,0,0,323.71,93.11L309.84,76.76l0,0-24.4-28.88-.09.11L264.69,23.55h0A66.14,66.14,0,0,0,213.95,0a67.2,67.2,0,0,0-34.87,9.73,66.25,66.25,0,0,0-25.51,28.44L44,269.62v0a72.35,72.35,0,0,0,42.22,99.47l.2.07.07,0h0a110.05,110.05,0,0,0,108.93-22.76l73.25-66.32a3.36,3.36,0,0,0,0-5l-5.51-5Z"/><path d="M222.09,161.09a105.37,105.37,0,0,0,8.7,42q1.24,2.83,2.64,5.58l.48.91q1.14,2.2,2.38,4.35c.3.52.62,1,.93,1.55q1.07,1.78,2.21,3.51.59.89,1.2,1.78,1.19,1.73,2.46,3.41c.36.48.72,1,1.08,1.43.84,1.1,1.72,2.16,2.62,3.22.46.54.9,1.09,1.37,1.62a105,105,0,0,0,7.77,8l.72.69.94.85h0c1.19,1.09,2.39,2.18,3.6,3.25l14.48,13.11,9.71,8.79,21.82,19.75,68.08,61.64a110.05,110.05,0,0,0,108.93,22.76h0l.07,0,.2-.07a72.32,72.32,0,0,0,42.22-99.47v0L417.21,38.17A66.25,66.25,0,0,0,391.69,9.73,67.2,67.2,0,0,0,356.83,0a66.14,66.14,0,0,0-50.75,23.56h0l-5.74,6.76a4.8,4.8,0,0,0,0,6.21l18,21.29a3.36,3.36,0,0,0,4.93.23c5.84-5.7,18.44-16.78,21.6-18.21a29.24,29.24,0,0,1,12-2.54,29.93,29.93,0,0,1,15.5,4.31A28.89,28.89,0,0,1,383.5,54.12L493,285.57v0a35,35,0,0,1,3.4,15,35.39,35.39,0,0,1-6.4,20.23,34.72,34.72,0,0,1-17.42,13l-.06,0a72.83,72.83,0,0,1-72.24-15l-87.14-78.9-17.84-16.15-.93-.84c-2.8-2.57-5.63-5.11-8.45-7.65l-.54-.51h0l-3.69-3.35c-.75-.68-1.4-1.42-2.11-2.13s-1.64-1.59-2.41-2.42c-.55-.6-1.07-1.21-1.59-1.82-.9-1.05-1.77-2.13-2.6-3.24-.55-.73-1.1-1.47-1.62-2.22-.8-1.17-1.55-2.37-2.28-3.58-.41-.68-.84-1.34-1.22-2-1-1.88-2-3.8-2.88-5.78a68.09,68.09,0,0,1-5.62-27.11A67.39,67.39,0,0,1,271,123.2a4.87,4.87,0,0,0-.23-5.9l-14.7-17.37-4.78-5.66a3.37,3.37,0,0,0-5.2,0c-14.59,18.39-23.4,40.33-24,64.05Z"/></svg>